<svg width="65" height="64" viewBox="0 0 65 64" fill="none" xmlns="http://www.w3.org/2000/svg">
<circle cx="32.5" cy="32" r="32" fill="#16063E"/>
<path fill-rule="evenodd" clip-rule="evenodd" d="M48.2307 35.3259C43.7957 35.3259 43.7957 28.4686 48.2307 28.4686C48.2307 20.5233 48.2307 17.6875 32.5724 17.6875C16.9141 17.6875 16.9141 20.5233 16.9141 28.4686C21.3491 28.4686 21.3491 35.3259 16.9141 35.3259C16.9141 43.2728 16.9141 46.1086 32.5724 46.1086C48.2307 46.1086 48.2307 43.2728 48.2307 35.3259Z" stroke="white" stroke-width="2.5" stroke-linecap="round" stroke-linejoin="round"/>
<path fill-rule="evenodd" clip-rule="evenodd" d="M32.5695 27.2891C31.4312 27.2891 31.3228 29.1049 30.6462 29.7475C29.9678 30.3885 27.8628 29.6559 27.5695 30.7943C27.2778 31.9343 29.1728 32.3212 29.4078 33.2985C29.6412 34.2759 28.4845 35.6496 29.4728 36.3349C30.4628 37.017 31.5278 35.4712 32.5695 35.4712C33.6112 35.4712 34.6762 37.017 35.6662 36.3349C36.6562 35.6496 35.4978 34.2759 35.7312 33.2985C35.9662 32.3212 37.8612 31.9343 37.5695 30.7943C37.2762 29.6559 35.1712 30.3885 34.4928 29.7475C33.8162 29.1049 33.7078 27.2891 32.5695 27.2891Z" stroke="white" stroke-width="2.5" stroke-linecap="round" stroke-linejoin="round"/>
<g clip-path="url(#clip0_518_5269)">
<path d="M30.411 0.398337C31.5597 0.13615 32.7528 0.13615 33.9015 0.398337L44.3631 2.78613C45.5118 3.04832 46.5867 3.56595 47.5079 4.30058L55.8975 10.991C56.8187 11.7257 57.5625 12.6584 58.0737 13.72L62.7296 23.388C63.2408 24.4495 63.5063 25.6127 63.5063 26.7909V37.5216C63.5063 38.6998 63.2408 39.8629 62.7296 40.9245L58.0737 50.5925C57.5625 51.6541 56.8187 52.5868 55.8975 53.3215L47.5079 60.0119C46.5867 60.7465 45.5118 61.2642 44.3631 61.5264L33.9015 63.9142C32.7528 64.1763 31.5597 64.1763 30.411 63.9142L19.9494 61.5264C18.8007 61.2642 17.7258 60.7465 16.8046 60.0119L8.41505 53.3215C7.49385 52.5868 6.75001 51.6541 6.23878 50.5925L1.58292 40.9245C1.0717 39.8629 0.806225 38.6998 0.806225 37.5216L0.806225 26.7909C0.806225 25.6127 1.0717 24.4495 1.58292 23.388L6.23878 13.72C6.75001 12.6584 7.49385 11.7257 8.41505 10.991L16.8046 4.30059C17.7258 3.56595 18.8007 3.04832 19.9494 2.78613L30.411 0.398337Z" fill="#16063E"/>
<path d="M31.633 9.20449C32.1321 9.09058 32.6504 9.09058 33.1495 9.20449L41.7718 11.1725C42.2709 11.2864 42.7379 11.5113 43.1382 11.8305L50.0527 17.3446C50.4529 17.6638 50.7761 18.0691 50.9982 18.5303L54.8355 26.4985C55.0577 26.9598 55.173 27.4651 55.173 27.977V36.8211C55.173 37.333 55.0577 37.8384 54.8355 38.2996L50.9982 46.2678C50.7761 46.729 50.453 47.1343 50.0527 47.4535L43.1382 52.9676C42.7379 53.2868 42.2709 53.5117 41.7718 53.6256L33.1495 55.5936C32.6504 55.7075 32.1321 55.7075 31.633 55.5936L23.0107 53.6256C22.5116 53.5117 22.0446 53.2868 21.6443 52.9676L14.7298 47.4535C14.3295 47.1343 14.0064 46.729 13.7842 46.2678L9.94695 38.2996C9.72483 37.8384 9.60949 37.333 9.60949 36.8211V27.977C9.60949 27.4651 9.72483 26.9598 9.94695 26.4985L13.7842 18.5303C14.0064 18.0691 14.3295 17.6638 14.7298 17.3446L21.6443 11.8305C22.0446 11.5113 22.5116 11.2864 23.0107 11.1725L31.633 9.20449Z" stroke="white" stroke-opacity="0.7" stroke-width="0.792469"/>
<circle cx="32.9405" cy="4.70617" r="0.784299" fill="white" fill-opacity="0.7"/>
<circle cx="44.6984" cy="7.83899" r="0.784299" fill="white" fill-opacity="0.7"/>
<circle cx="54.1124" cy="14.9015" r="0.784299" fill="white" fill-opacity="0.7"/>
<circle cx="59.6046" cy="25.0968" r="0.784299" fill="white" fill-opacity="0.7"/>
<circle cx="59.6124" cy="37.6437" r="0.784299" fill="white" fill-opacity="0.7"/>
<circle cx="54.1124" cy="48.628" r="0.784299" fill="white" fill-opacity="0.7"/>
<circle cx="44.6984" cy="57.253" r="0.784299" fill="white" fill-opacity="0.7"/>
<circle cx="32.9405" cy="59.5968" r="0.784299" fill="white" fill-opacity="0.7"/>
<circle cx="20.3937" cy="57.253" r="0.784299" fill="white" fill-opacity="0.7"/>
<circle cx="10.1905" cy="48.628" r="0.784299" fill="white" fill-opacity="0.7"/>
<circle cx="4.69836" cy="37.6437" r="0.784299" fill="white" fill-opacity="0.7"/>
<circle cx="4.69836" cy="25.0968" r="0.784299" fill="white" fill-opacity="0.7"/>
<circle cx="10.1905" cy="14.8937" r="0.784299" fill="white" fill-opacity="0.7"/>
<circle cx="21.1671" cy="7.83899" r="0.784299" fill="white" fill-opacity="0.7"/>
</g>
<path fill-rule="evenodd" clip-rule="evenodd" d="M45.4769 35.2392C41.818 35.2392 41.818 29.5819 45.4769 29.5819C45.4769 23.027 45.4769 20.6875 32.5588 20.6875C19.6406 20.6875 19.6406 23.027 19.6406 29.5819C23.2995 29.5819 23.2995 35.2392 19.6406 35.2392C19.6406 41.7953 19.6406 44.1349 32.5588 44.1349C45.4769 44.1349 45.4769 41.7953 45.4769 35.2392Z" stroke="white" stroke-width="1.5" stroke-linecap="round" stroke-linejoin="round"/>
<path fill-rule="evenodd" clip-rule="evenodd" d="M32.5564 28.6094C31.6172 28.6094 31.5279 30.1074 30.9696 30.6376C30.41 31.1664 28.6734 30.562 28.4314 31.5012C28.1907 32.4417 29.7541 32.7609 29.948 33.5672C30.1405 34.3735 29.1862 35.5068 30.0016 36.0722C30.8184 36.6349 31.697 35.3596 32.5564 35.3596C33.4157 35.3596 34.2944 36.6349 35.1111 36.0722C35.9279 35.5068 34.9722 34.3735 35.1647 33.5672C35.3586 32.7609 36.922 32.4417 36.6814 31.5012C36.4394 30.562 34.7027 31.1664 34.1431 30.6376C33.5849 30.1074 33.4955 28.6094 32.5564 28.6094Z" stroke="white" stroke-width="1.5" stroke-linecap="round" stroke-linejoin="round"/>
<defs>
<clipPath id="clip0_518_5269">
<rect width="64" height="64" fill="white"/>
</clipPath>
</defs>
</svg>
