<svg width="49" height="48" viewBox="0 0 49 48" fill="none" xmlns="http://www.w3.org/2000/svg">
<rect x="0.75" width="48" height="48" rx="24" fill="#7444EE"/>
<circle cx="24.844" cy="16.7331" r="4.72729" fill="#D6C8F9"/>
<g clip-path="url(#clip0_518_6072)">
<path d="M15.75 31.8457C15.75 27.4467 19.3161 23.8806 23.7151 23.8806H25.7063C30.1053 23.8806 33.6714 27.4467 33.6714 31.8457V33.0024C33.6714 33.7227 33.1711 34.3464 32.468 34.5027C30.2875 34.9872 28.069 35.2807 25.8375 35.3799L24.7107 35.43L23.5837 35.3799C21.3524 35.2807 19.134 34.9872 16.9537 34.5027C16.2504 34.3464 15.75 33.7226 15.75 33.0022V31.8457Z" fill="#D6C8F9"/>
<path d="M18.5894 29.9456C18.7962 27.051 20.8673 24.63 23.6949 23.9775L24.1146 23.8806H25.7076C30.1066 23.8806 33.6727 27.4467 33.6727 31.8457V33.0024C33.6727 33.7227 33.1724 34.3464 32.4693 34.5027C30.2888 34.9872 28.0703 35.2807 25.8388 35.3799L24.712 35.43L20.4348 35.0995C20.3579 35.0935 20.2866 35.0568 20.2372 34.9975C19.3874 33.9784 18.8379 32.743 18.6503 31.4295L18.6391 31.351C18.5726 30.8856 18.556 30.4145 18.5894 29.9456Z" fill="#EBE3FC"/>
</g>
<defs>
<clipPath id="clip0_518_6072">
<path d="M15.75 23.6853H34.0033V35.55C34.0033 35.802 33.799 36.0063 33.547 36.0063H15.75V23.6853Z" fill="white"/>
</clipPath>
</defs>
</svg>
