<svg width="626" height="820" viewBox="0 0 626 820" fill="none" xmlns="http://www.w3.org/2000/svg">
<rect width="626" height="819" fill="white"/>
<g opacity="0.35">
<g style="mix-blend-mode:luminosity">
<path fill-rule="evenodd" clip-rule="evenodd" d="M330.714 489.596C329.169 489.596 327.915 491.477 327.915 493.796C327.915 496.119 329.169 498 330.714 498C332.261 498 333.513 496.119 333.513 493.796C333.513 491.477 332.261 489.596 330.714 489.596Z" fill="#ECECEC"/>
<path fill-rule="evenodd" clip-rule="evenodd" d="M325.823 401.596C324.276 401.596 323.023 403.477 323.023 405.798C323.023 408.119 324.276 410 325.823 410C327.368 410 328.622 408.119 328.622 405.798C328.622 403.477 327.368 401.596 325.823 401.596Z" fill="#ECECEC"/>
<path fill-rule="evenodd" clip-rule="evenodd" d="M331.017 432.624C330.129 435.069 329.01 437.376 327.631 439.445C325.656 442.411 323.363 444.597 320.922 446.05L326.822 454.906C329.262 453.455 331.549 451.251 333.522 448.288C334.899 446.221 336.027 443.92 336.914 441.478L331.017 432.624Z" fill="#ECECEC"/>
<path fill-rule="evenodd" clip-rule="evenodd" d="M456.751 362.419C455.664 361.53 454.638 360.408 453.719 359.027C452.4 357.048 451.428 354.749 450.782 352.304L446.845 358.217C447.49 360.66 448.47 362.951 449.787 364.93C450.706 366.309 451.729 367.439 452.815 368.328L456.751 362.419Z" fill="#ECECEC"/>
<path fill-rule="evenodd" clip-rule="evenodd" d="M372.964 295.695C372.614 293.914 372.417 292.032 372.417 290.079C372.417 287.28 372.812 284.623 373.507 282.208H367.939C367.244 284.621 366.857 287.283 366.857 290.079C366.857 292.03 367.048 293.914 367.397 295.695H372.964Z" fill="#ECECEC"/>
<path fill-rule="evenodd" clip-rule="evenodd" d="M377.864 511.484C377.514 509.702 377.317 507.821 377.317 505.868C377.317 503.069 377.712 500.412 378.408 497.995H372.838C372.143 500.41 371.757 503.07 371.757 505.868C371.757 507.819 371.947 509.703 372.297 511.484H377.864Z" fill="#ECECEC"/>
<path fill-rule="evenodd" clip-rule="evenodd" d="M432.739 205.865C431.552 206.389 430.299 206.686 428.998 206.686C427.133 206.686 425.363 206.093 423.755 205.048V213.409C425.362 214.453 427.134 215.031 428.998 215.031C430.298 215.031 431.553 214.745 432.739 214.221V205.865Z" fill="#ECECEC"/>
<path fill-rule="evenodd" clip-rule="evenodd" d="M458.962 473.52C460.758 472.819 462.518 471.745 464.19 470.239C466.584 468.08 468.552 465.27 470.081 462.065L473.246 466.021C472.278 469.683 470.81 473.116 468.837 476.079C467.459 478.146 465.928 479.839 464.3 481.172L458.962 473.52Z" fill="#ECECEC"/>
<path fill-rule="evenodd" clip-rule="evenodd" d="M415.984 172.099C417.779 172.802 419.541 173.874 421.212 175.38C423.607 177.541 425.575 180.351 427.104 183.555L430.268 179.599C429.3 175.938 427.832 172.504 425.859 169.542C424.482 167.474 422.95 165.78 421.323 164.449L415.984 172.099Z" fill="#ECECEC"/>
<path fill-rule="evenodd" clip-rule="evenodd" d="M389.531 270.765C391.091 271.374 392.62 272.305 394.071 273.612C396.15 275.488 397.858 277.928 399.187 280.711L401.934 277.277C401.093 274.096 399.819 271.117 398.106 268.543C396.91 266.748 395.58 265.278 394.167 264.121L389.531 270.765Z" fill="#ECECEC"/>
<path fill-rule="evenodd" clip-rule="evenodd" d="M380.824 391.375C381.153 389.476 381.655 387.615 382.363 385.848C383.375 383.318 384.693 381.238 386.196 379.622L384.34 376.278C382.624 377.301 381.013 378.852 379.623 380.939C378.654 382.394 377.861 384.012 377.235 385.733L380.824 391.375Z" fill="#ECECEC"/>
</g>
<g style="mix-blend-mode:luminosity">
<path fill-rule="evenodd" clip-rule="evenodd" d="M330.009 810.596C328.464 810.596 327.21 812.477 327.21 814.796C327.21 817.119 328.464 819 330.009 819C331.555 819 332.808 817.119 332.808 814.796C332.808 812.477 331.555 810.596 330.009 810.596Z" fill="#ECECEC"/>
<path fill-rule="evenodd" clip-rule="evenodd" d="M325.118 722.596C323.571 722.596 322.318 724.477 322.318 726.798C322.318 729.119 323.571 731 325.118 731C326.663 731 327.917 729.119 327.917 726.798C327.917 724.477 326.663 722.596 325.118 722.596Z" fill="#ECECEC"/>
<path fill-rule="evenodd" clip-rule="evenodd" d="M330.312 753.624C329.424 756.069 328.305 758.376 326.926 760.445C324.951 763.411 322.658 765.597 320.217 767.05L326.117 775.906C328.557 774.455 330.844 772.251 332.816 769.288C334.194 767.221 335.322 764.92 336.209 762.478L330.312 753.624Z" fill="#ECECEC"/>
<path fill-rule="evenodd" clip-rule="evenodd" d="M456.046 683.419C454.959 682.53 453.933 681.408 453.013 680.027C451.695 678.048 450.723 675.749 450.077 673.304L446.14 679.217C446.785 681.66 447.765 683.951 449.082 685.93C450.001 687.309 451.024 688.439 452.11 689.328L456.046 683.419Z" fill="#ECECEC"/>
<path fill-rule="evenodd" clip-rule="evenodd" d="M372.259 616.695C371.909 614.914 371.712 613.032 371.712 611.079C371.712 608.28 372.107 605.623 372.802 603.208H367.234C366.539 605.621 366.152 608.283 366.152 611.079C366.152 613.03 366.343 614.914 366.692 616.695H372.259Z" fill="#ECECEC"/>
<path fill-rule="evenodd" clip-rule="evenodd" d="M377.159 809.484C376.809 807.702 376.612 805.821 376.612 803.868C376.612 801.069 377.007 798.412 377.703 795.995H372.133C371.438 798.41 371.052 801.07 371.052 803.868C371.052 805.819 371.242 807.703 371.591 809.484H377.159Z" fill="#ECECEC"/>
<path fill-rule="evenodd" clip-rule="evenodd" d="M432.034 526.865C430.847 527.389 429.594 527.686 428.293 527.686C426.428 527.686 424.658 527.093 423.05 526.048V534.409C424.657 535.453 426.429 536.031 428.293 536.031C429.593 536.031 430.848 535.745 432.034 535.221V526.865Z" fill="#ECECEC"/>
<path fill-rule="evenodd" clip-rule="evenodd" d="M458.257 794.52C460.052 793.819 461.813 792.745 463.485 791.239C465.879 789.08 467.847 786.27 469.376 783.065L472.541 787.021C471.573 790.683 470.105 794.116 468.132 797.079C466.754 799.146 465.223 800.839 463.595 802.172L458.257 794.52Z" fill="#ECECEC"/>
<path fill-rule="evenodd" clip-rule="evenodd" d="M415.279 493.099C417.074 493.802 418.836 494.874 420.507 496.38C422.902 498.541 424.87 501.351 426.399 504.555L429.563 500.599C428.595 496.938 427.127 493.504 425.154 490.542C423.777 488.474 422.245 486.78 420.618 485.449L415.279 493.099Z" fill="#ECECEC"/>
<path fill-rule="evenodd" clip-rule="evenodd" d="M388.826 591.765C390.385 592.374 391.915 593.305 393.366 594.612C395.445 596.488 397.153 598.928 398.482 601.711L401.229 598.277C400.388 595.096 399.114 592.117 397.401 589.543C396.204 587.748 394.874 586.278 393.462 585.121L388.826 591.765Z" fill="#ECECEC"/>
<path fill-rule="evenodd" clip-rule="evenodd" d="M380.119 712.375C380.447 710.476 380.95 708.615 381.658 706.848C382.669 704.318 383.988 702.238 385.491 700.622L383.635 697.278C381.919 698.301 380.308 699.852 378.918 701.939C377.949 703.394 377.156 705.012 376.53 706.733L380.119 712.375Z" fill="#ECECEC"/>
</g>
<g style="mix-blend-mode:luminosity">
<path fill-rule="evenodd" clip-rule="evenodd" d="M260.107 81.4844C259.757 79.7016 259.56 77.8208 259.56 75.8676C259.56 73.0689 259.955 70.4116 260.651 67.9954H255.082C254.387 70.41 254 73.0705 254 75.8676C254 77.8192 254.191 79.7032 254.54 81.4844H260.107Z" fill="#ECECEC"/>
<path fill-rule="evenodd" clip-rule="evenodd" d="M341.205 43.5199C343.001 42.819 344.761 41.7452 346.433 40.2389C348.827 38.08 350.795 35.27 352.325 32.0645L355.489 36.0207C354.521 39.6827 353.053 43.1164 351.08 46.0792C349.702 48.1465 348.171 49.8392 346.543 51.1719L341.205 43.5199Z" fill="#ECECEC"/>
</g>
<g style="mix-blend-mode:luminosity">
<path fill-rule="evenodd" clip-rule="evenodd" d="M483.022 106.596C481.477 106.596 480.223 108.477 480.223 110.796C480.223 113.119 481.477 115 483.022 115C484.568 115 485.821 113.119 485.821 110.796C485.821 108.477 484.568 106.596 483.022 106.596Z" fill="#ECECEC"/>
<path fill-rule="evenodd" clip-rule="evenodd" d="M478.13 18.5957C476.584 18.5957 475.331 20.4766 475.331 22.7979C475.331 25.1192 476.584 27 478.13 27C479.676 27 480.93 25.1192 480.93 22.7979C480.93 20.4766 479.676 18.5957 478.13 18.5957Z" fill="#ECECEC"/>
<path fill-rule="evenodd" clip-rule="evenodd" d="M483.324 49.624C482.437 52.0691 481.318 54.3759 479.938 56.4448C477.964 59.4108 475.671 61.597 473.229 63.0503L479.13 71.9062C481.569 70.4546 483.857 68.2507 485.829 65.288C487.206 63.2207 488.335 60.9203 489.222 58.4784L483.324 49.624Z" fill="#ECECEC"/>
<path fill-rule="evenodd" clip-rule="evenodd" d="M530.172 128.484C529.821 126.702 529.624 124.821 529.624 122.868C529.624 120.069 530.019 117.412 530.716 114.995H525.146C524.451 117.41 524.064 120.07 524.064 122.868C524.064 124.819 524.255 126.703 524.604 128.484H530.172Z" fill="#ECECEC"/>
<path fill-rule="evenodd" clip-rule="evenodd" d="M611.269 90.5199C613.065 89.819 614.826 88.7452 616.497 87.2389C618.892 85.08 620.86 82.27 622.389 79.0645L625.553 83.0207C624.585 86.6827 623.117 90.1164 621.145 93.0792C619.767 95.1465 618.235 96.8392 616.608 98.1719L611.269 90.5199Z" fill="#ECECEC"/>
<path fill-rule="evenodd" clip-rule="evenodd" d="M533.131 18.375C533.46 16.4765 533.962 14.6149 534.67 12.8482C535.682 10.318 537 8.23779 538.504 6.62221L536.648 3.2785C534.931 4.3009 533.321 5.85218 531.931 7.93878C530.962 9.39362 530.168 11.0124 529.543 12.7325L533.131 18.375Z" fill="#ECECEC"/>
</g>
<g style="mix-blend-mode:luminosity">
<path fill-rule="evenodd" clip-rule="evenodd" d="M406.338 681.334C407.883 681.334 409.137 679.453 409.137 677.133C409.137 674.811 407.883 672.93 406.338 672.93C404.791 672.93 403.538 674.811 403.538 677.133C403.538 679.453 404.791 681.334 406.338 681.334Z" fill="#ECECEC"/>
<path fill-rule="evenodd" clip-rule="evenodd" d="M411.229 769.334C412.775 769.334 414.028 767.453 414.028 765.132C414.028 762.811 412.775 760.93 411.229 760.93C409.684 760.93 408.43 762.811 408.43 765.132C408.43 767.453 409.684 769.334 411.229 769.334Z" fill="#ECECEC"/>
<path fill-rule="evenodd" clip-rule="evenodd" d="M406.035 738.306C406.923 735.861 408.042 733.554 409.421 731.485C411.396 728.519 413.688 726.333 416.13 724.879L410.229 716.023C407.79 717.475 405.503 719.679 403.53 722.642C402.153 724.709 401.024 727.009 400.138 729.451L406.035 738.306Z" fill="#ECECEC"/>
<path fill-rule="evenodd" clip-rule="evenodd" d="M280.301 808.511C281.387 809.4 282.413 810.522 283.333 811.903C284.651 813.882 285.624 816.181 286.27 818.626L290.207 812.713C289.561 810.27 288.581 807.979 287.264 806C286.346 804.621 285.323 803.491 284.237 802.602L280.301 808.511Z" fill="#ECECEC"/>
<path fill-rule="evenodd" clip-rule="evenodd" d="M359.188 659.445C359.538 661.228 359.735 663.109 359.735 665.062C359.735 667.861 359.34 670.518 358.644 672.934H364.213C364.908 670.52 365.295 667.859 365.295 665.062C365.295 663.111 365.104 661.226 364.755 659.445H359.188Z" fill="#ECECEC"/>
<path fill-rule="evenodd" clip-rule="evenodd" d="M278.09 697.41C276.294 698.111 274.534 699.184 272.862 700.691C270.468 702.85 268.499 705.66 266.97 708.865L263.806 704.909C264.774 701.247 266.242 697.813 268.215 694.851C269.593 692.783 271.124 691.09 272.752 689.758L278.09 697.41Z" fill="#ECECEC"/>
<path fill-rule="evenodd" clip-rule="evenodd" d="M356.228 779.555C355.899 781.453 355.397 783.315 354.689 785.081C353.677 787.612 352.359 789.692 350.856 791.307L352.711 794.651C354.428 793.629 356.038 792.078 357.428 789.991C358.398 788.536 359.191 786.917 359.816 785.197L356.228 779.555Z" fill="#ECECEC"/>
</g>
</g>
<g opacity="0.35">
<g style="mix-blend-mode:luminosity">
<path fill-rule="evenodd" clip-rule="evenodd" d="M78.3627 490.162C76.8174 490.162 75.5635 492.043 75.5635 494.362C75.5635 496.685 76.8174 498.566 78.3627 498.566C79.909 498.566 81.1619 496.685 81.1619 494.362C81.1619 492.043 79.909 490.162 78.3627 490.162Z" fill="#ECECEC"/>
<path fill-rule="evenodd" clip-rule="evenodd" d="M73.4711 402.162C71.9248 402.162 70.6719 404.043 70.6719 406.364C70.6719 408.685 71.9248 410.566 73.4711 410.566C75.0164 410.566 76.2704 408.685 76.2704 406.364C76.2704 404.043 75.0164 402.162 73.4711 402.162Z" fill="#ECECEC"/>
<path fill-rule="evenodd" clip-rule="evenodd" d="M78.6652 433.19C77.7775 435.635 76.6585 437.942 75.2792 440.011C73.3046 442.977 71.0119 445.163 68.5703 446.616L74.4707 455.472C76.9101 454.021 79.1975 451.817 81.17 448.854C82.5471 446.787 83.6758 444.486 84.5624 442.045L78.6652 433.19Z" fill="#ECECEC"/>
<path fill-rule="evenodd" clip-rule="evenodd" d="M204.4 362.985C203.313 362.096 202.287 360.974 201.367 359.593C200.049 357.614 199.076 355.315 198.431 352.87L194.493 358.783C195.139 361.226 196.119 363.517 197.436 365.496C198.355 366.875 199.377 368.005 200.463 368.894L204.4 362.985Z" fill="#ECECEC"/>
<path fill-rule="evenodd" clip-rule="evenodd" d="M120.613 296.261C120.263 294.48 120.066 292.598 120.066 290.645C120.066 287.846 120.461 285.189 121.156 282.774H115.587C114.892 285.187 114.506 287.849 114.506 290.645C114.506 292.596 114.696 294.48 115.046 296.261H120.613Z" fill="#ECECEC"/>
<path fill-rule="evenodd" clip-rule="evenodd" d="M125.512 512.051C125.162 510.268 124.965 508.387 124.965 506.434C124.965 503.635 125.36 500.978 126.056 498.562H120.487C119.792 500.976 119.405 503.637 119.405 506.434C119.405 508.385 119.596 510.269 119.945 512.051H125.512Z" fill="#ECECEC"/>
<path fill-rule="evenodd" clip-rule="evenodd" d="M180.388 206.431C179.2 206.955 177.947 207.253 176.646 207.253C174.782 207.253 173.012 206.659 171.403 205.615V213.975C173.011 215.019 174.783 215.597 176.646 215.597C177.946 215.597 179.201 215.311 180.388 214.787V206.431Z" fill="#ECECEC"/>
<path fill-rule="evenodd" clip-rule="evenodd" d="M206.61 474.086C208.406 473.385 210.166 472.311 211.838 470.805C214.232 468.646 216.201 465.836 217.73 462.631L220.894 466.587C219.926 470.249 218.458 473.683 216.486 476.645C215.107 478.713 213.576 480.405 211.948 481.738L206.61 474.086Z" fill="#ECECEC"/>
<path fill-rule="evenodd" clip-rule="evenodd" d="M163.633 172.665C165.428 173.368 167.189 174.44 168.861 175.946C171.255 178.107 173.223 180.917 174.753 184.121L177.917 180.165C176.949 176.504 175.481 173.071 173.507 170.108C172.13 168.041 170.599 166.346 168.971 165.015L163.633 172.665Z" fill="#ECECEC"/>
<path fill-rule="evenodd" clip-rule="evenodd" d="M137.18 271.331C138.739 271.94 140.268 272.871 141.719 274.178C143.799 276.054 145.507 278.494 146.836 281.277L149.582 277.843C148.742 274.662 147.468 271.683 145.754 269.11C144.558 267.314 143.228 265.845 141.816 264.687L137.18 271.331Z" fill="#ECECEC"/>
<path fill-rule="evenodd" clip-rule="evenodd" d="M128.472 391.941C128.801 390.043 129.303 388.181 130.011 386.414C131.023 383.884 132.341 381.804 133.845 380.188L131.989 376.845C130.272 377.867 128.662 379.418 127.272 381.505C126.303 382.96 125.509 384.579 124.884 386.299L128.472 391.941Z" fill="#ECECEC"/>
</g>
<g style="mix-blend-mode:luminosity">
<path fill-rule="evenodd" clip-rule="evenodd" d="M77.6576 811.162C76.1124 811.162 74.8584 813.043 74.8584 815.362C74.8584 817.685 76.1124 819.566 77.6576 819.566C79.2039 819.566 80.4568 817.685 80.4568 815.362C80.4568 813.043 79.2039 811.162 77.6576 811.162Z" fill="#ECECEC"/>
<path fill-rule="evenodd" clip-rule="evenodd" d="M72.7661 723.162C71.2198 723.162 69.9669 725.043 69.9669 727.364C69.9669 729.685 71.2198 731.566 72.7661 731.566C74.3113 731.566 75.5653 729.685 75.5653 727.364C75.5653 725.043 74.3113 723.162 72.7661 723.162Z" fill="#ECECEC"/>
<path fill-rule="evenodd" clip-rule="evenodd" d="M77.9602 754.19C77.0724 756.635 75.9534 758.942 74.5741 761.011C72.5995 763.977 70.3068 766.163 67.8652 767.616L73.7656 776.472C76.205 775.021 78.4924 772.817 80.4649 769.854C81.842 767.787 82.9707 765.486 83.8574 763.045L77.9602 754.19Z" fill="#ECECEC"/>
<path fill-rule="evenodd" clip-rule="evenodd" d="M203.695 683.985C202.608 683.096 201.582 681.974 200.662 680.593C199.344 678.614 198.371 676.315 197.726 673.87L193.788 679.783C194.434 682.226 195.414 684.517 196.731 686.496C197.65 687.875 198.672 689.005 199.758 689.894L203.695 683.985Z" fill="#ECECEC"/>
<path fill-rule="evenodd" clip-rule="evenodd" d="M119.908 617.261C119.558 615.48 119.361 613.598 119.361 611.645C119.361 608.846 119.756 606.189 120.451 603.774H114.882C114.187 606.187 113.801 608.849 113.801 611.645C113.801 613.596 113.991 615.48 114.34 617.261H119.908Z" fill="#ECECEC"/>
<path fill-rule="evenodd" clip-rule="evenodd" d="M124.807 810.051C124.457 808.268 124.26 806.387 124.26 804.434C124.26 801.635 124.655 798.978 125.351 796.562H119.782C119.087 798.976 118.7 801.637 118.7 804.434C118.7 806.385 118.891 808.269 119.24 810.051H124.807Z" fill="#ECECEC"/>
<path fill-rule="evenodd" clip-rule="evenodd" d="M179.683 527.431C178.495 527.955 177.242 528.253 175.941 528.253C174.077 528.253 172.307 527.659 170.698 526.615V534.975C172.306 536.019 174.078 536.597 175.941 536.597C177.241 536.597 178.496 536.311 179.683 535.787V527.431Z" fill="#ECECEC"/>
<path fill-rule="evenodd" clip-rule="evenodd" d="M205.905 795.086C207.701 794.385 209.461 793.311 211.133 791.805C213.527 789.646 215.496 786.836 217.025 783.631L220.189 787.587C219.221 791.249 217.753 794.683 215.781 797.645C214.402 799.713 212.871 801.405 211.243 802.738L205.905 795.086Z" fill="#ECECEC"/>
<path fill-rule="evenodd" clip-rule="evenodd" d="M162.928 493.665C164.722 494.368 166.484 495.44 168.156 496.946C170.55 499.107 172.518 501.917 174.047 505.121L177.212 501.165C176.244 497.504 174.776 494.071 172.802 491.108C171.425 489.041 169.894 487.346 168.266 486.015L162.928 493.665Z" fill="#ECECEC"/>
<path fill-rule="evenodd" clip-rule="evenodd" d="M136.475 592.331C138.034 592.94 139.563 593.871 141.014 595.178C143.094 597.054 144.802 599.494 146.131 602.277L148.877 598.843C148.037 595.662 146.762 592.683 145.049 590.11C143.853 588.314 142.523 586.845 141.11 585.687L136.475 592.331Z" fill="#ECECEC"/>
<path fill-rule="evenodd" clip-rule="evenodd" d="M127.767 712.941C128.096 711.043 128.598 709.181 129.306 707.414C130.318 704.884 131.636 702.804 133.14 701.188L131.284 697.845C129.567 698.867 127.957 700.418 126.567 702.505C125.598 703.96 124.804 705.579 124.179 707.299L127.767 712.941Z" fill="#ECECEC"/>
</g>
<g style="mix-blend-mode:luminosity">
<path fill-rule="evenodd" clip-rule="evenodd" d="M7.75552 82.0505C7.40535 80.2678 7.20831 78.3869 7.20831 76.4338C7.20831 73.635 7.60346 70.9777 8.29952 68.5616H2.73C2.03502 70.9761 1.64844 73.6366 1.64844 76.4338C1.64844 78.3853 1.83906 80.2694 2.18815 82.0505H7.75552Z" fill="#ECECEC"/>
<path fill-rule="evenodd" clip-rule="evenodd" d="M88.8533 44.0861C90.6492 43.3852 92.4096 42.3114 94.0812 40.8051C96.4757 38.6461 98.4439 35.8362 99.9731 32.6307L103.137 36.5869C102.169 40.2489 100.701 43.6826 98.7287 46.6453C97.3506 48.7126 95.8192 50.4054 94.1915 51.738L88.8533 44.0861Z" fill="#ECECEC"/>
</g>
<g style="mix-blend-mode:luminosity">
<path fill-rule="evenodd" clip-rule="evenodd" d="M230.67 107.162C229.125 107.162 227.871 109.043 227.871 111.362C227.871 113.685 229.125 115.566 230.67 115.566C232.217 115.566 233.47 113.685 233.47 111.362C233.47 109.043 232.217 107.162 230.67 107.162Z" fill="#ECECEC"/>
<path fill-rule="evenodd" clip-rule="evenodd" d="M225.779 19.1619C224.232 19.1619 222.98 21.0427 222.98 23.364C222.98 25.6853 224.232 27.5662 225.779 27.5662C227.324 27.5662 228.578 25.6853 228.578 23.364C228.578 21.0427 227.324 19.1619 225.779 19.1619Z" fill="#ECECEC"/>
<path fill-rule="evenodd" clip-rule="evenodd" d="M230.973 50.1902C230.085 52.6352 228.966 54.9421 227.587 57.011C225.612 59.9769 223.319 62.1632 220.878 63.6164L226.778 72.4724C229.218 71.0208 231.505 68.8168 233.478 65.8541C234.855 63.7868 235.983 61.4864 236.87 59.0446L230.973 50.1902Z" fill="#ECECEC"/>
<path fill-rule="evenodd" clip-rule="evenodd" d="M277.82 129.051C277.47 127.268 277.273 125.387 277.273 123.434C277.273 120.635 277.668 117.978 278.364 115.562H272.794C272.099 117.976 271.713 120.637 271.713 123.434C271.713 125.385 271.904 127.269 272.253 129.051H277.82Z" fill="#ECECEC"/>
<path fill-rule="evenodd" clip-rule="evenodd" d="M358.918 91.0861C360.714 90.3852 362.474 89.3114 364.146 87.8051C366.54 85.6461 368.508 82.8362 370.038 79.6307L373.202 83.5869C372.234 87.2489 370.766 90.6826 368.793 93.6453C367.415 95.7126 365.884 97.4054 364.256 98.738L358.918 91.0861Z" fill="#ECECEC"/>
<path fill-rule="evenodd" clip-rule="evenodd" d="M280.78 17.9412C281.109 16.0426 281.611 14.1811 282.319 12.4144C283.331 9.88412 284.649 7.80396 286.152 6.18837L284.297 2.84466C282.58 3.86706 280.969 5.41835 279.579 7.50495C278.61 8.95978 277.817 10.5786 277.191 12.2987L280.78 17.9412Z" fill="#ECECEC"/>
</g>
<g style="mix-blend-mode:luminosity">
<path fill-rule="evenodd" clip-rule="evenodd" d="M153.986 681.9C155.531 681.9 156.785 680.019 156.785 677.7C156.785 675.377 155.531 673.496 153.986 673.496C152.44 673.496 151.187 675.377 151.187 677.7C151.187 680.019 152.44 681.9 153.986 681.9Z" fill="#ECECEC"/>
<path fill-rule="evenodd" clip-rule="evenodd" d="M158.877 769.9C160.424 769.9 161.677 768.019 161.677 765.698C161.677 763.377 160.424 761.496 158.877 761.496C157.332 761.496 156.078 763.377 156.078 765.698C156.078 768.019 157.332 769.9 158.877 769.9Z" fill="#ECECEC"/>
<path fill-rule="evenodd" clip-rule="evenodd" d="M153.683 738.872C154.571 736.427 155.69 734.12 157.069 732.051C159.044 729.085 161.337 726.899 163.778 725.446L157.878 716.59C155.439 718.041 153.151 720.245 151.179 723.208C149.802 725.275 148.673 727.576 147.786 730.017L153.683 738.872Z" fill="#ECECEC"/>
<path fill-rule="evenodd" clip-rule="evenodd" d="M27.949 809.077C29.0359 809.966 30.0618 811.088 30.9817 812.469C32.2999 814.448 33.2722 816.747 33.9179 819.192L37.8555 813.279C37.2097 810.836 36.2299 808.545 34.9128 806.566C33.994 805.187 32.9713 804.057 31.8854 803.168L27.949 809.077Z" fill="#ECECEC"/>
<path fill-rule="evenodd" clip-rule="evenodd" d="M106.836 660.011C107.186 661.794 107.383 663.675 107.383 665.628C107.383 668.427 106.988 671.084 106.292 673.5H111.862C112.557 671.086 112.943 668.425 112.943 665.628C112.943 663.677 112.753 661.793 112.404 660.011H106.836Z" fill="#ECECEC"/>
<path fill-rule="evenodd" clip-rule="evenodd" d="M25.7385 697.976C23.9426 698.677 22.1822 699.751 20.5106 701.257C18.1161 703.416 16.1479 706.226 14.6187 709.431L11.4543 705.475C12.4224 701.813 13.8905 698.379 15.8631 695.417C17.2412 693.349 18.7726 691.657 20.4003 690.324L25.7385 697.976Z" fill="#ECECEC"/>
<path fill-rule="evenodd" clip-rule="evenodd" d="M103.876 780.121C103.548 782.019 103.045 783.881 102.338 785.648C101.326 788.178 100.007 790.258 98.5039 791.874L100.36 795.217C102.076 794.195 103.687 792.644 105.077 790.557C106.046 789.102 106.839 787.483 107.465 785.763L103.876 780.121Z" fill="#ECECEC"/>
</g>
</g>
<g clip-path="url(#clip0_1_3)">
<g style="mix-blend-mode:luminosity">
<path fill-rule="evenodd" clip-rule="evenodd" d="M269.985 99.1886C269.096 98.1017 267.974 97.0758 266.593 96.1559C264.614 94.8377 262.315 93.8654 259.87 93.2196L265.783 89.2821C268.226 89.9278 270.517 90.9077 272.496 92.2248C273.875 93.1436 275.005 94.1663 275.894 95.2521L269.985 99.1886Z" fill="#ECECEC"/>
<path fill-rule="evenodd" clip-rule="evenodd" d="M203.261 15.4012C201.48 15.051 199.598 14.854 197.645 14.854C194.846 14.854 192.189 15.2491 189.774 15.9441V10.3757C192.187 9.68071 194.849 9.29413 197.645 9.29413C199.596 9.29413 201.48 9.48474 203.261 9.83384V15.4012Z" fill="#ECECEC"/>
<path fill-rule="evenodd" clip-rule="evenodd" d="M419.051 20.3013C417.268 19.9511 415.387 19.7541 413.434 19.7541C410.635 19.7541 407.978 20.1492 405.562 20.8453V15.2758C407.976 14.5808 410.637 14.1942 413.434 14.1942C415.385 14.1942 417.269 14.3848 419.051 14.7339V20.3013Z" fill="#ECECEC"/>
<path fill-rule="evenodd" clip-rule="evenodd" d="M113.431 75.1764C113.955 73.9888 114.253 72.7359 114.253 71.4348C114.253 69.5704 113.659 67.8003 112.615 66.1919H120.975C122.019 67.7993 122.597 69.5715 122.597 71.4348C122.597 72.7348 122.311 73.9899 121.787 75.1764H113.431Z" fill="#ECECEC"/>
<path fill-rule="evenodd" clip-rule="evenodd" d="M381.086 101.399C380.385 103.195 379.311 104.955 377.805 106.627C375.646 109.021 372.836 110.989 369.631 112.518L373.587 115.683C377.249 114.715 380.683 113.247 383.645 111.274C385.713 109.896 387.405 108.365 388.738 106.737L381.086 101.399Z" fill="#ECECEC"/>
<path fill-rule="evenodd" clip-rule="evenodd" d="M79.6654 58.4217C80.3679 60.2165 81.4402 61.978 82.9464 63.6496C85.107 66.0441 87.917 68.0123 91.1208 69.5415L87.1647 72.7059C83.5043 71.7378 80.0705 70.2697 77.1078 68.2961C75.0405 66.919 73.3462 65.3876 72.0151 63.7599L79.6654 58.4217Z" fill="#ECECEC"/>
<path fill-rule="evenodd" clip-rule="evenodd" d="M178.331 31.9684C178.94 33.5276 179.871 35.0568 181.178 36.5078C183.054 38.5874 185.494 40.2954 188.277 41.6243L184.843 44.371C181.662 43.5304 178.683 42.2561 176.11 40.5427C174.314 39.3466 172.845 38.0166 171.687 36.6041L178.331 31.9684Z" fill="#ECECEC"/>
<path fill-rule="evenodd" clip-rule="evenodd" d="M298.941 23.2612C297.043 23.5899 295.181 24.0921 293.414 24.8C290.884 25.8119 288.804 27.1302 287.188 28.6336L283.845 26.7779C284.867 25.0613 286.418 23.4507 288.505 22.0607C289.96 21.0916 291.579 20.2981 293.299 19.6727L298.941 23.2612Z" fill="#ECECEC"/>
</g>
<g style="mix-blend-mode:luminosity">
<path fill-rule="evenodd" clip-rule="evenodd" d="M590.985 98.4835C590.096 97.3966 588.974 96.3707 587.593 95.4508C585.614 94.1326 583.315 93.1603 580.87 92.5146L586.783 88.577C589.226 89.2228 591.517 90.2026 593.496 91.5197C594.875 92.4385 596.005 93.4612 596.894 94.5471L590.985 98.4835Z" fill="#ECECEC"/>
<path fill-rule="evenodd" clip-rule="evenodd" d="M524.261 14.6961C522.48 14.346 520.598 14.1489 518.645 14.1489C515.846 14.1489 513.189 14.5441 510.774 15.2391V9.67062C513.187 8.97563 515.849 8.58906 518.645 8.58906C520.596 8.58906 522.48 8.77967 524.261 9.12877V14.6961Z" fill="#ECECEC"/>
<path fill-rule="evenodd" clip-rule="evenodd" d="M434.431 74.4713C434.955 73.2837 435.253 72.0308 435.253 70.7297C435.253 68.8654 434.659 67.0953 433.615 65.4868H441.975C443.019 67.0942 443.597 68.8664 443.597 70.7297C443.597 72.0297 443.311 73.2848 442.787 74.4713H434.431Z" fill="#ECECEC"/>
<path fill-rule="evenodd" clip-rule="evenodd" d="M400.665 57.7167C401.368 59.5114 402.44 61.273 403.946 62.9446C406.107 65.339 408.917 67.3072 412.121 68.8364L408.165 72.0008C404.504 71.0327 401.071 69.5646 398.108 67.591C396.041 66.2139 394.346 64.6826 393.015 63.0549L400.665 57.7167Z" fill="#ECECEC"/>
<path fill-rule="evenodd" clip-rule="evenodd" d="M499.331 31.2633C499.94 32.8225 500.871 34.3517 502.178 35.8027C504.054 37.8823 506.494 39.5903 509.277 40.9192L505.843 43.666C502.662 42.8253 499.683 41.551 497.11 39.8377C495.314 38.6415 493.845 37.3115 492.687 35.8991L499.331 31.2633Z" fill="#ECECEC"/>
<path fill-rule="evenodd" clip-rule="evenodd" d="M619.941 22.5561C618.043 22.8848 616.181 23.3871 614.414 24.0949C611.884 25.1069 609.804 26.4251 608.188 27.9286L604.845 26.0728C605.867 24.3562 607.418 22.7456 609.505 21.3557C610.96 20.3865 612.579 19.593 614.299 18.9677L619.941 22.5561Z" fill="#ECECEC"/>
</g>
<g style="mix-blend-mode:luminosity">
<path fill-rule="evenodd" clip-rule="evenodd" d="M14.1619 125.459C14.1619 123.914 16.0427 122.66 18.3624 122.66C20.6853 122.66 22.5662 123.914 22.5662 125.459C22.5662 127.006 20.6853 128.258 18.3624 128.258C16.0427 128.258 14.1619 127.006 14.1619 125.459Z" fill="#ECECEC"/>
</g>
<g style="mix-blend-mode:luminosity">
<path fill-rule="evenodd" clip-rule="evenodd" d="M588.9 48.7751C588.9 50.3203 587.019 51.5743 584.7 51.5743C582.377 51.5743 580.496 50.3203 580.496 48.7751C580.496 47.2288 582.377 45.9759 584.7 45.9759C587.019 45.9759 588.9 47.2288 588.9 48.7751Z" fill="#ECECEC"/>
<path fill-rule="evenodd" clip-rule="evenodd" d="M645.872 48.4728C643.427 49.3606 641.12 50.4796 639.051 51.8588C636.085 53.8335 633.899 56.1262 632.446 58.5677L623.59 52.6673C625.041 50.2279 627.245 47.9406 630.208 45.9681C632.275 44.591 634.576 43.4623 637.017 42.5756L645.872 48.4728Z" fill="#ECECEC"/>
<path fill-rule="evenodd" clip-rule="evenodd" d="M567.011 1.62533C568.794 1.9755 570.675 2.17254 572.628 2.17254C575.427 2.17254 578.084 1.77739 580.5 1.08134V6.65085C578.086 7.34583 575.425 7.73241 572.628 7.73241C570.677 7.73241 568.793 7.5418 567.011 7.1927V1.62533Z" fill="#ECECEC"/>
</g>
<path d="M0 135.5H627V136H0L0 135.5Z" fill="#EBF1F4"/>
</g>
<defs>
<clipPath id="clip0_1_3">
<rect width="626" height="136" fill="white"/>
</clipPath>
</defs>
</svg>
