<svg width="39" height="35" viewBox="0 0 39 35" fill="none" xmlns="http://www.w3.org/2000/svg">
<path d="M35.0232 21.5004L30.0324 19.9063C29.4796 19.7297 29.3383 19.013 29.7828 18.6398L37.6662 12.0216C38.2678 11.5166 37.7674 10.5464 37.0072 10.7438L26.7604 13.4047C26.2677 13.5326 25.7968 13.1344 25.841 12.6273L26.7611 2.0808C26.8294 1.29835 25.7895 0.966199 25.3916 1.64334L20.0275 10.7703C19.7696 11.2092 19.155 11.2607 18.8277 10.8708L12.0208 2.7627C11.5158 2.16115 10.5457 2.66157 10.7431 3.42178L13.4039 13.6685C13.5319 14.1612 13.1337 14.6321 12.6266 14.5879L2.08008 13.6678C1.29763 13.5996 0.965482 14.6394 1.64262 15.0374L10.7696 20.4014C11.2085 20.6593 11.2599 21.2739 10.8701 21.6012L2.76198 28.4081C2.16044 28.9131 2.66085 29.8832 3.42106 29.6858L13.5472 27.0563C14.0717 26.9201 14.5589 27.3776 14.4559 27.9096L13.1566 34.6243" stroke="#EDB03B" stroke-width="0.935362"/>
</svg>
