<svg width="92" height="92" viewBox="0 0 92 92" fill="none" xmlns="http://www.w3.org/2000/svg">
<path d="M84.7942 48.7922L73.2528 47.8607C71.9743 47.7576 71.3113 46.2856 72.0811 45.2597L85.7352 27.0647C86.7771 25.6763 85.2139 23.8387 83.6765 24.6445L62.953 35.5048C61.9565 36.027 60.7433 35.4057 60.5845 34.292L57.2821 11.1295C57.0371 9.41105 54.6324 9.21697 54.115 10.8739L47.1406 33.207C46.8053 34.2808 45.5081 34.6994 44.6083 34.0242L25.8948 19.981C24.5064 18.9391 22.6688 20.5022 23.4745 22.0397L34.3348 42.7632C34.857 43.7597 34.2358 44.9729 33.1221 45.1317L9.95956 48.4341C8.24112 48.6791 8.04704 51.0838 9.70394 51.6012L32.0371 58.5755C33.1109 58.9109 33.5295 60.208 32.8543 61.1078L18.811 79.8214C17.7692 81.2098 19.3323 83.0474 20.8698 82.2416L41.3494 71.5092C42.4102 70.9532 43.6881 71.6939 43.733 72.8907L44.2997 87.995" stroke="#EDB03B" stroke-width="2"/>
<path d="M39.6562 59.8438C42.6463 61.3996 50.5388 61.1927 49.3538 52.7757" stroke="#EDB03B" stroke-linecap="round"/>
<circle cx="44.6113" cy="55.6099" r="1.5" transform="rotate(-36.0863 44.6113 55.6099)" fill="#EDB03B"/>
<path d="M54.6562 49.8438C57.6463 51.3996 65.6633 53.0765 64.4783 44.6595" stroke="#EDB03B" stroke-linecap="round"/>
<circle cx="59.6113" cy="45.6099" r="1.5" transform="rotate(-36.0863 59.6113 45.6099)" fill="#EDB03B"/>
</svg>
