<svg width="54" height="40" viewBox="0 0 54 40" fill="none" xmlns="http://www.w3.org/2000/svg">
<circle cx="20.25" cy="20" r="19" stroke="#7444EE" stroke-width="2"/>
<path d="M27.75 18.5703C27.1977 18.5703 26.75 19.018 26.75 19.5703C26.75 20.1226 27.1977 20.5703 27.75 20.5703L27.75 18.5703ZM53.4571 20.2774C53.8476 19.8869 53.8476 19.2537 53.4571 18.8632L47.0931 12.4992C46.7026 12.1087 46.0695 12.1087 45.6789 12.4992C45.2884 12.8898 45.2884 13.5229 45.6789 13.9135L51.3358 19.5703L45.6789 25.2272C45.2884 25.6177 45.2884 26.2509 45.6789 26.6414C46.0695 27.0319 46.7026 27.0319 47.0931 26.6414L53.4571 20.2774ZM27.75 20.5703L52.75 20.5703L52.75 18.5703L27.75 18.5703L27.75 20.5703Z" fill="#7444EE"/>
</svg>
