<svg width="55" height="40" viewBox="0 0 55 40" fill="none" xmlns="http://www.w3.org/2000/svg">
<circle cx="20" cy="20" r="19" transform="matrix(-1 0 0 1 54.25 0)" stroke="#DCD0FB" stroke-width="2"/>
<path d="M26.75 20.5703C27.3023 20.5703 27.75 20.1226 27.75 19.5703C27.75 19.018 27.3023 18.5703 26.75 18.5703V20.5703ZM1.04289 18.8632C0.652369 19.2537 0.652369 19.8869 1.04289 20.2774L7.40685 26.6414C7.79738 27.0319 8.43054 27.0319 8.82107 26.6414C9.21159 26.2509 9.21159 25.6177 8.82107 25.2272L3.16421 19.5703L8.82107 13.9135C9.21159 13.5229 9.21159 12.8898 8.82107 12.4992C8.43054 12.1087 7.79738 12.1087 7.40685 12.4992L1.04289 18.8632ZM26.75 18.5703L1.75 18.5703V20.5703L26.75 20.5703V18.5703Z" fill="#DCD0FB"/>
</svg>
