<svg width="272" height="78" viewBox="0 0 272 78" fill="none" xmlns="http://www.w3.org/2000/svg">
<path d="M5.87548 11.1124L272 0.257812V64.0287L0 77.2578L5.87548 11.1124Z" fill="#FDF5E3"/>
<path d="M89.536 48.8754C87.424 48.8754 85.5787 48.3634 84 47.3394C82.4427 46.2941 81.3973 44.8541 80.864 43.0194L84.256 42.0594C84.5973 43.2114 85.248 44.1074 86.208 44.7474C87.168 45.3661 88.288 45.6754 89.568 45.6754C90.912 45.6754 92 45.3661 92.832 44.7474C93.6853 44.1288 94.112 43.3074 94.112 42.2834C94.112 41.9421 94.0587 41.6328 93.952 41.3554C93.8667 41.0568 93.696 40.8008 93.44 40.5874C93.2053 40.3741 92.9813 40.1928 92.768 40.0434C92.5547 39.8941 92.2347 39.7554 91.808 39.6274C91.4027 39.4781 91.0613 39.3714 90.784 39.3074C90.528 39.2221 90.144 39.1154 89.632 38.9874C89.12 38.8594 88.736 38.7634 88.48 38.6994C87.648 38.4861 86.9653 38.3048 86.432 38.1554C85.8987 37.9848 85.2693 37.7288 84.544 37.3874C83.84 37.0248 83.2747 36.6408 82.848 36.2354C82.4427 35.8088 82.08 35.2648 81.76 34.6034C81.4613 33.9208 81.312 33.1528 81.312 32.2994C81.312 30.4221 82.0587 28.8648 83.552 27.6274C85.0667 26.3688 86.944 25.7394 89.184 25.7394C91.168 25.7394 92.832 26.2194 94.176 27.1794C95.52 28.1394 96.4693 29.5261 97.024 31.3394L93.792 32.2674C93.0667 30.0061 91.552 28.8754 89.248 28.8754C87.9467 28.8754 86.9013 29.2168 86.112 29.8994C85.3227 30.5608 84.928 31.3608 84.928 32.2994C84.928 32.5341 84.96 32.7581 85.024 32.9714C85.088 33.1848 85.152 33.3768 85.216 33.5474C85.3013 33.7181 85.4293 33.8888 85.6 34.0594C85.792 34.2088 85.9413 34.3368 86.048 34.4434C86.176 34.5501 86.3787 34.6674 86.656 34.7954C86.9333 34.9021 87.136 34.9874 87.264 35.0514C87.4133 35.1154 87.6587 35.2008 88 35.3074C88.3627 35.4141 88.608 35.4888 88.736 35.5314C88.8853 35.5741 89.1627 35.6488 89.568 35.7554C89.9733 35.8408 90.24 35.9048 90.368 35.9474C92.608 36.5661 94.1227 37.0888 94.912 37.5154C96.7893 38.5821 97.7387 40.1394 97.76 42.1874C97.76 44.2141 96.9707 45.8354 95.392 47.0514C93.8347 48.2674 91.8827 48.8754 89.536 48.8754ZM103.393 29.2274C103.009 29.6114 102.55 29.8034 102.017 29.8034C101.484 29.8034 101.025 29.6114 100.641 29.2274C100.278 28.8434 100.097 28.3848 100.097 27.8514C100.097 27.3394 100.278 26.9021 100.641 26.5394C101.025 26.1554 101.484 25.9634 102.017 25.9634C102.55 25.9634 103.009 26.1554 103.393 26.5394C103.777 26.9021 103.969 27.3394 103.969 27.8514C103.969 28.3848 103.777 28.8434 103.393 29.2274ZM100.385 48.5234V32.6834H103.681V48.5234H100.385ZM106.91 48.5234V45.6754L116.862 35.5954H107.39V32.6834H121.406V35.5314L111.486 45.6114H121.758V48.5234H106.91ZM131.717 32.2354C134.042 32.2354 135.951 32.9714 137.445 34.4434C138.938 35.9154 139.706 37.8781 139.749 40.3314C139.749 40.8221 139.738 41.2061 139.717 41.4834H126.533C126.703 42.9128 127.269 44.0541 128.229 44.9074C129.21 45.7394 130.373 46.1554 131.717 46.1554C133.743 46.1554 135.311 45.4408 136.421 44.0114L138.469 45.7394C137.743 46.7421 136.773 47.5208 135.557 48.0754C134.362 48.6301 133.082 48.9074 131.717 48.9074C129.37 48.9074 127.397 48.1074 125.797 46.5074C124.218 44.9074 123.429 42.9448 123.429 40.6194C123.429 38.2514 124.218 36.2674 125.797 34.6674C127.375 33.0461 129.349 32.2354 131.717 32.2354ZM131.717 34.8594C130.394 34.8594 129.263 35.2648 128.325 36.0754C127.407 36.8648 126.831 37.9314 126.597 39.2754H136.741C136.463 37.8888 135.877 36.8114 134.981 36.0434C134.106 35.2541 133.018 34.8594 131.717 34.8594ZM148.789 48.5234L157.909 26.1234H161.621L170.933 48.5234H167.061L165.333 44.2994H154.325L152.661 48.5234H148.789ZM155.477 41.0674H164.181L159.829 30.1874H159.765L155.477 41.0674ZM190.387 48.5234H186.515L182.195 40.0434H176.883V48.5234H173.395V26.1234H182.611C184.68 26.1234 186.429 26.7528 187.859 28.0114C189.288 29.2701 190.003 30.9661 190.003 33.0994C190.003 34.6994 189.587 36.0541 188.755 37.1634C187.944 38.2728 186.867 39.0728 185.523 39.5634L190.387 48.5234ZM176.883 29.2274V37.0034H182.259C183.517 37.0034 184.531 36.6514 185.299 35.9474C186.067 35.2434 186.451 34.3048 186.451 33.1314C186.451 31.9581 186.067 31.0194 185.299 30.3154C184.531 29.5901 183.517 29.2274 182.259 29.2274H176.883Z" fill="#16063E"/>
</svg>
