<svg width="272" height="77" viewBox="0 0 272 77" fill="none" xmlns="http://www.w3.org/2000/svg">
<path d="M5.87548 10.8546L272 0V63.7709L0 77L5.87548 10.8546Z" fill="#F1ECFD"/>
<path d="M91.984 48.5856C90.0853 48.5856 88.4213 48.1163 86.992 47.1776L88.688 44.1696C89.6267 44.8096 90.7253 45.1296 91.984 45.1296C93.7973 45.1296 95.1733 44.575 96.112 43.4656C97.072 42.3563 97.552 40.7776 97.552 38.7296V25.8656H101.072V39.3696C101.072 42.2923 100.229 44.5643 98.544 46.1856C96.8587 47.7856 94.672 48.5856 91.984 48.5856ZM112.404 31.9776C114.73 31.9776 116.639 32.7136 118.132 34.1856C119.626 35.6576 120.394 37.6203 120.436 40.0736C120.436 40.5643 120.426 40.9483 120.404 41.2256H107.22C107.391 42.655 107.956 43.7963 108.916 44.6496C109.898 45.4816 111.06 45.8976 112.404 45.8976C114.431 45.8976 115.999 45.183 117.108 43.7536L119.156 45.4816C118.431 46.4843 117.46 47.263 116.244 47.8176C115.05 48.3723 113.77 48.6496 112.404 48.6496C110.058 48.6496 108.084 47.8496 106.484 46.2496C104.906 44.6496 104.116 42.687 104.116 40.3616C104.116 37.9936 104.906 36.0096 106.484 34.4096C108.063 32.7883 110.036 31.9776 112.404 31.9776ZM112.404 34.6016C111.082 34.6016 109.951 35.007 109.012 35.8176C108.095 36.607 107.519 37.6736 107.284 39.0176H117.428C117.151 37.631 116.564 36.5536 115.668 35.7856C114.794 34.9963 113.706 34.6016 112.404 34.6016ZM130.561 31.9776C132.886 31.9776 134.795 32.7136 136.289 34.1856C137.782 35.6576 138.55 37.6203 138.593 40.0736C138.593 40.5643 138.582 40.9483 138.561 41.2256H125.377C125.547 42.655 126.113 43.7963 127.073 44.6496C128.054 45.4816 129.217 45.8976 130.561 45.8976C132.587 45.8976 134.155 45.183 135.265 43.7536L137.312 45.4816C136.587 46.4843 135.617 47.263 134.401 47.8176C133.206 48.3723 131.926 48.6496 130.561 48.6496C128.214 48.6496 126.241 47.8496 124.641 46.2496C123.062 44.6496 122.273 42.687 122.273 40.3616C122.273 37.9936 123.062 36.0096 124.641 34.4096C126.219 32.7883 128.193 31.9776 130.561 31.9776ZM130.561 34.6016C129.238 34.6016 128.107 35.007 127.169 35.8176C126.251 36.607 125.675 37.6736 125.441 39.0176H135.585C135.307 37.631 134.721 36.5536 133.825 35.7856C132.95 34.9963 131.862 34.6016 130.561 34.6016ZM148.631 48.3296C147.009 48.3296 145.697 47.8816 144.695 46.9856C143.713 46.0683 143.223 44.8203 143.223 43.2416V35.3696H139.607V32.4256H143.223V27.8176H146.551V32.4256H151.031V35.3696H146.551V42.5376C146.551 44.351 147.489 45.2576 149.367 45.2576C149.964 45.2576 150.54 45.1616 151.095 44.9696L151.479 47.8816C150.455 48.1803 149.505 48.3296 148.631 48.3296ZM160.575 48.4896C158.441 48.4896 156.649 47.711 155.199 46.1536C153.748 44.575 153.023 42.6443 153.023 40.3616C153.023 38.0363 153.737 36.095 155.167 34.5376C156.617 32.9803 158.42 32.2016 160.575 32.2016C163.028 32.2016 164.969 33.023 166.399 34.6656V32.4256H169.759V48.2656H166.399V46.0256C164.948 47.6683 163.007 48.4896 160.575 48.4896ZM157.791 44.0736C158.751 45.0763 159.945 45.5776 161.375 45.5776C162.804 45.5776 163.999 45.0763 164.959 44.0736C165.919 43.0496 166.399 41.8123 166.399 40.3616C166.399 38.8683 165.919 37.6203 164.959 36.6176C163.999 35.615 162.804 35.1136 161.375 35.1136C159.945 35.1136 158.751 35.615 157.791 36.6176C156.831 37.6203 156.351 38.8683 156.351 40.3616C156.351 41.8123 156.831 43.0496 157.791 44.0736ZM173.48 48.2656V32.4256H176.84V34.5696C178.056 32.927 180.094 32.127 182.952 32.1696V35.7216C182.355 35.487 181.662 35.3696 180.872 35.3696C179.763 35.3696 178.814 35.807 178.024 36.6816C177.235 37.535 176.84 38.719 176.84 40.2336V48.2656H173.48Z" fill="#16063E"/>
</svg>
