<svg width="272" height="77" viewBox="0 0 272 77" fill="none" xmlns="http://www.w3.org/2000/svg">
<path d="M5.87548 10.8546L272 0V63.7709L0 77L5.87548 10.8546Z" fill="#EAF6F1"/>
<path d="M64.676 48.2656V25.8656H79.94V29.0016H68.196V35.6896H79.684V38.8256H68.196V48.2656H64.676ZM89.5745 48.4896C87.4412 48.4896 85.6492 47.711 84.1985 46.1536C82.7478 44.575 82.0225 42.6443 82.0225 40.3616C82.0225 38.0363 82.7372 36.095 84.1665 34.5376C85.6172 32.9803 87.4198 32.2016 89.5745 32.2016C92.0278 32.2016 93.9692 33.023 95.3985 34.6656V32.4256H98.7585V48.2656H95.3985V46.0256C93.9478 47.6683 92.0065 48.4896 89.5745 48.4896ZM86.7905 44.0736C87.7505 45.0763 88.9452 45.5776 90.3745 45.5776C91.8038 45.5776 92.9985 45.0763 93.9585 44.0736C94.9185 43.0496 95.3985 41.8123 95.3985 40.3616C95.3985 38.8683 94.9185 37.6203 93.9585 36.6176C92.9985 35.615 91.8038 35.1136 90.3745 35.1136C88.9452 35.1136 87.7505 35.615 86.7905 36.6176C85.8305 37.6203 85.3505 38.8683 85.3505 40.3616C85.3505 41.8123 85.8305 43.0496 86.7905 44.0736ZM102.48 48.2656V32.4256H105.84V34.5696C107.056 32.927 109.094 32.127 111.952 32.1696V35.7216C111.355 35.487 110.662 35.3696 109.872 35.3696C108.763 35.3696 107.814 35.807 107.024 36.6816C106.235 37.535 105.84 38.719 105.84 40.2336V48.2656H102.48ZM120.637 48.4896C118.504 48.4896 116.712 47.711 115.261 46.1536C113.81 44.575 113.085 42.6443 113.085 40.3616C113.085 38.0363 113.8 36.095 115.229 34.5376C116.68 32.9803 118.482 32.2016 120.637 32.2016C123.09 32.2016 125.032 33.023 126.461 34.6656V32.4256H129.821V48.2656H126.461V46.0256C125.01 47.6683 123.069 48.4896 120.637 48.4896ZM117.853 44.0736C118.813 45.0763 120.008 45.5776 121.437 45.5776C122.866 45.5776 124.061 45.0763 125.021 44.0736C125.981 43.0496 126.461 41.8123 126.461 40.3616C126.461 38.8683 125.981 37.6203 125.021 36.6176C124.061 35.615 122.866 35.1136 121.437 35.1136C120.008 35.1136 118.813 35.615 117.853 36.6176C116.893 37.6203 116.413 38.8683 116.413 40.3616C116.413 41.8123 116.893 43.0496 117.853 44.0736ZM133.543 48.2656V32.4256H136.903V34.4736C138.247 32.959 139.975 32.2016 142.087 32.2016C144.369 32.2016 146.161 33.183 147.463 35.1456C148.871 33.183 150.876 32.2016 153.479 32.2016C155.505 32.2016 157.127 32.8736 158.343 34.2176C159.559 35.5616 160.167 37.5136 160.167 40.0736V48.2656H156.807V40.3616C156.807 38.5696 156.433 37.2363 155.687 36.3616C154.94 35.487 153.969 35.0496 152.775 35.0496C151.495 35.0496 150.471 35.519 149.703 36.4576C148.935 37.375 148.551 38.6763 148.551 40.3616V48.2656H145.191V40.3616C145.191 38.591 144.807 37.2683 144.039 36.3936C143.271 35.4976 142.311 35.0496 141.159 35.0496C139.921 35.0496 138.897 35.5403 138.087 36.5216C137.297 37.4816 136.903 38.8256 136.903 40.5536V48.2656H133.543ZM177.175 46.2496C175.532 47.871 173.548 48.6816 171.223 48.6816C168.897 48.6816 166.913 47.871 165.271 46.2496C163.628 44.607 162.807 42.6336 162.807 40.3296C162.807 38.0043 163.628 36.031 165.271 34.4096C166.913 32.767 168.897 31.9456 171.223 31.9456C173.569 31.9456 175.564 32.767 177.207 34.4096C178.849 36.031 179.671 38.0043 179.671 40.3296C179.671 42.6336 178.839 44.607 177.175 46.2496ZM171.223 45.5136C172.609 45.535 173.783 45.0443 174.743 44.0416C175.703 43.039 176.183 41.8123 176.183 40.3616C176.183 38.8896 175.703 37.6523 174.743 36.6496C173.783 35.647 172.609 35.1563 171.223 35.1776C169.836 35.1563 168.663 35.647 167.703 36.6496C166.764 37.6523 166.295 38.8896 166.295 40.3616C166.295 41.8123 166.764 43.039 167.703 44.0416C168.663 45.0443 169.836 45.535 171.223 45.5136ZM187.005 48.2656L180.445 32.4256H183.997L188.893 44.9056L193.757 32.4256H197.309L190.781 48.2656H187.005ZM206.248 31.9776C208.573 31.9776 210.483 32.7136 211.976 34.1856C213.469 35.6576 214.237 37.6203 214.28 40.0736C214.28 40.5643 214.269 40.9483 214.248 41.2256H201.064C201.235 42.655 201.8 43.7963 202.76 44.6496C203.741 45.4816 204.904 45.8976 206.248 45.8976C208.275 45.8976 209.843 45.183 210.952 43.7536L213 45.4816C212.275 46.4843 211.304 47.263 210.088 47.8176C208.893 48.3723 207.613 48.6496 206.248 48.6496C203.901 48.6496 201.928 47.8496 200.328 46.2496C198.749 44.6496 197.96 42.687 197.96 40.3616C197.96 37.9936 198.749 36.0096 200.328 34.4096C201.907 32.7883 203.88 31.9776 206.248 31.9776ZM206.248 34.6016C204.925 34.6016 203.795 35.007 202.856 35.8176C201.939 36.607 201.363 37.6736 201.128 39.0176H211.272C210.995 37.631 210.408 36.5536 209.512 35.7856C208.637 34.9963 207.549 34.6016 206.248 34.6016Z" fill="#16063E"/>
</svg>
