<svg width="272" height="77" viewBox="0 0 272 77" fill="none" xmlns="http://www.w3.org/2000/svg">
<path d="M5.87548 10.8546L272 0V63.7709L0 77L5.87548 10.8546Z" fill="#FFEBEB"/>
<path d="M76.848 48.2656L70.416 25.8656H74.192L78.992 43.5296L84.432 25.8656H87.792L93.264 43.5296L98.032 25.8656H101.84L95.408 48.2656H91.344L86.128 31.7856L80.88 48.2656H76.848ZM109.592 31.9776C111.917 31.9776 113.826 32.7136 115.32 34.1856C116.813 35.6576 117.581 37.6203 117.624 40.0736C117.624 40.5643 117.613 40.9483 117.592 41.2256H104.408C104.578 42.655 105.144 43.7963 106.104 44.6496C107.085 45.4816 108.248 45.8976 109.592 45.8976C111.618 45.8976 113.186 45.183 114.296 43.7536L116.344 45.4816C115.618 46.4843 114.648 47.263 113.432 47.8176C112.237 48.3723 110.957 48.6496 109.592 48.6496C107.245 48.6496 105.272 47.8496 103.672 46.2496C102.093 44.6496 101.304 42.687 101.304 40.3616C101.304 37.9936 102.093 36.0096 103.672 34.4096C105.25 32.7883 107.224 31.9776 109.592 31.9776ZM109.592 34.6016C108.269 34.6016 107.138 35.007 106.2 35.8176C105.282 36.607 104.706 37.6736 104.472 39.0176H114.616C114.338 37.631 113.752 36.5536 112.856 35.7856C111.981 34.9963 110.893 34.6016 109.592 34.6016ZM124.966 48.3296C123.516 48.3296 122.364 47.903 121.51 47.0496C120.657 46.175 120.23 44.9696 120.23 43.4336V24.2656H123.59V42.8256C123.59 43.615 123.793 44.2123 124.198 44.6176C124.625 45.023 125.169 45.2256 125.83 45.2256C126.129 45.2256 126.47 45.1723 126.854 45.0656L127.206 48.0096C126.31 48.223 125.564 48.3296 124.966 48.3296ZM133.904 48.3296C132.453 48.3296 131.301 47.903 130.448 47.0496C129.594 46.175 129.168 44.9696 129.168 43.4336V24.2656H132.528V42.8256C132.528 43.615 132.73 44.2123 133.136 44.6176C133.562 45.023 134.106 45.2256 134.768 45.2256C135.066 45.2256 135.408 45.1723 135.792 45.0656L136.144 48.0096C135.248 48.223 134.501 48.3296 133.904 48.3296ZM138.449 48.2656V32.4256H141.809V34.4736C143.068 32.959 144.721 32.2016 146.769 32.2016C148.86 32.2016 150.534 32.8843 151.793 34.2496C153.073 35.5936 153.713 37.535 153.713 40.0736V48.2656H150.353V40.3616C150.353 38.6123 149.969 37.3003 149.201 36.4256C148.433 35.551 147.43 35.1136 146.193 35.1136C144.87 35.1136 143.804 35.5936 142.993 36.5536C142.204 37.4923 141.809 38.8043 141.809 40.4896V48.2656H138.449ZM164.467 31.9776C166.792 31.9776 168.701 32.7136 170.195 34.1856C171.688 35.6576 172.456 37.6203 172.499 40.0736C172.499 40.5643 172.488 40.9483 172.467 41.2256H159.283C159.453 42.655 160.019 43.7963 160.979 44.6496C161.96 45.4816 163.123 45.8976 164.467 45.8976C166.493 45.8976 168.061 45.183 169.171 43.7536L171.219 45.4816C170.493 46.4843 169.523 47.263 168.307 47.8176C167.112 48.3723 165.832 48.6496 164.467 48.6496C162.12 48.6496 160.147 47.8496 158.547 46.2496C156.968 44.6496 156.179 42.687 156.179 40.3616C156.179 37.9936 156.968 36.0096 158.547 34.4096C160.125 32.7883 162.099 31.9776 164.467 31.9776ZM164.467 34.6016C163.144 34.6016 162.013 35.007 161.075 35.8176C160.157 36.607 159.581 37.6736 159.347 39.0176H169.491C169.213 37.631 168.627 36.5536 167.731 35.7856C166.856 34.9963 165.768 34.6016 164.467 34.6016ZM181.188 48.8096C179.545 48.8096 178.073 48.4363 176.772 47.6896C175.47 46.9216 174.564 45.823 174.052 44.3936L176.964 43.4656C177.71 45.2363 179.129 46.1216 181.22 46.1216C182.329 46.1216 183.204 45.887 183.844 45.4176C184.484 44.9483 184.804 44.319 184.804 43.5296C184.804 42.783 184.42 42.2816 183.652 42.0256C182.905 41.7696 181.849 41.5883 180.484 41.4816C179.14 41.375 178.105 41.1723 177.38 40.8736C175.588 40.1483 174.692 38.8576 174.692 37.0016C174.692 35.615 175.289 34.4416 176.484 33.4816C177.678 32.5003 179.161 32.0096 180.932 32.0096C182.617 32.0096 184.014 32.4043 185.124 33.1936C186.233 33.983 186.958 35.0176 187.3 36.2976L184.42 37.0976C183.95 35.4123 182.798 34.5696 180.964 34.5696C180.025 34.5696 179.257 34.8043 178.66 35.2736C178.084 35.743 177.796 36.2976 177.796 36.9376C177.796 37.5776 178.073 38.0683 178.628 38.4096C179.204 38.751 179.854 38.9536 180.58 39.0176C181.326 39.0816 182.19 39.1883 183.172 39.3376C184.153 39.4656 184.932 39.6576 185.508 39.9136C187.214 40.6176 188.068 41.8336 188.068 43.5616C188.068 45.1403 187.428 46.4096 186.148 47.3696C184.889 48.3296 183.236 48.8096 181.188 48.8096ZM196.562 48.8096C194.92 48.8096 193.448 48.4363 192.147 47.6896C190.845 46.9216 189.939 45.823 189.427 44.3936L192.339 43.4656C193.085 45.2363 194.504 46.1216 196.595 46.1216C197.704 46.1216 198.579 45.887 199.219 45.4176C199.859 44.9483 200.179 44.319 200.179 43.5296C200.179 42.783 199.795 42.2816 199.027 42.0256C198.28 41.7696 197.224 41.5883 195.859 41.4816C194.515 41.375 193.48 41.1723 192.755 40.8736C190.963 40.1483 190.067 38.8576 190.067 37.0016C190.067 35.615 190.664 34.4416 191.859 33.4816C193.053 32.5003 194.536 32.0096 196.307 32.0096C197.992 32.0096 199.389 32.4043 200.499 33.1936C201.608 33.983 202.333 35.0176 202.675 36.2976L199.795 37.0976C199.325 35.4123 198.173 34.5696 196.339 34.5696C195.4 34.5696 194.632 34.8043 194.035 35.2736C193.459 35.743 193.171 36.2976 193.171 36.9376C193.171 37.5776 193.448 38.0683 194.003 38.4096C194.579 38.751 195.229 38.9536 195.955 39.0176C196.701 39.0816 197.565 39.1883 198.547 39.3376C199.528 39.4656 200.307 39.6576 200.883 39.9136C202.589 40.6176 203.443 41.8336 203.443 43.5616C203.443 45.1403 202.803 46.4096 201.523 47.3696C200.264 48.3296 198.611 48.8096 196.562 48.8096Z" fill="#16063E"/>
</svg>
