<svg width="36" height="36" viewBox="0 0 36 36" fill="none" xmlns="http://www.w3.org/2000/svg">
<circle cx="18" cy="18" r="18" fill="#EAE3FC"/>
<path d="M21.3359 14.6641C22.662 14.6641 23.9338 15.1908 24.8715 16.1285C25.8092 17.0662 26.3359 18.338 26.3359 19.6641V25.4974H23.0026V19.6641C23.0026 19.222 22.827 18.7981 22.5144 18.4856C22.2019 18.173 21.778 17.9974 21.3359 17.9974C20.8939 17.9974 20.47 18.173 20.1574 18.4856C19.8449 18.7981 19.6693 19.222 19.6693 19.6641V25.4974H16.3359V19.6641C16.3359 18.338 16.8627 17.0662 17.8004 16.1285C18.7381 15.1908 20.0099 14.6641 21.3359 14.6641V14.6641Z" fill="#7444EE"/>
<path d="M12.9974 15.5H9.66406V25.5H12.9974V15.5Z" fill="#7444EE"/>
<path d="M11.3307 13.0052C12.2512 13.0052 12.9974 12.259 12.9974 11.3385C12.9974 10.4181 12.2512 9.67188 11.3307 9.67188C10.4103 9.67188 9.66406 10.4181 9.66406 11.3385C9.66406 12.259 10.4103 13.0052 11.3307 13.0052Z" fill="#7444EE"/>
</svg>
