<svg width="47" height="25" viewBox="0 0 47 25" fill="none" xmlns="http://www.w3.org/2000/svg">
<path d="M11.6947 0.998169C18.0118 0.998169 23.357 6.2786 23.357 12.5309C23.357 18.7832 18.0118 24.0312 11.6947 24.0312C5.34523 24.0312 0 18.7832 0 12.5309C0 6.2786 5.34523 0.998169 11.6947 0.998169ZM11.6947 4.69123C7.5805 4.69123 4.1142 8.25472 4.1142 12.5309C4.1142 16.7747 7.5805 20.3382 11.6947 20.3382C15.7765 20.3382 19.2104 16.7747 19.2104 12.5309C19.2104 8.25472 15.7765 4.69123 11.6947 4.69123Z" fill="#7444EE"/>
<path fill-rule="evenodd" clip-rule="evenodd" d="M41.9842 23.6425H46.4548L41.7343 12.343L38.5788 15.4985L38.8419 16.1267L40.2997 19.6254L41.9842 23.6425ZM36.7053 11.0236L34.9221 6.7645L31.0022 16.1267L29.5444 19.6254L27.8599 23.6425H23.3569L32.6544 1.38688H37.1573L39.8637 7.86519L36.7053 11.0236Z" fill="#7444EE"/>
</svg>
