<svg width="159" height="114" viewBox="0 0 159 114" fill="none" xmlns="http://www.w3.org/2000/svg">
<path fill-rule="evenodd" clip-rule="evenodd" d="M159 10H0V36H159V27.9C158.677 27.9656 158.342 28 158 28C155.239 28 153 25.7614 153 23C153 20.2386 155.239 18 158 18C158.342 18 158.677 18.0344 159 18.1V10Z" fill="#FE635C"/>
<path d="M13.539 29.187C12.4283 29.187 11.482 28.915 10.7 28.371C9.92933 27.8157 9.476 27.045 9.34 26.059L10.955 25.634C11.0457 26.3027 11.346 26.8183 11.856 27.181C12.3773 27.5437 13.0177 27.725 13.777 27.725C14.5363 27.725 15.1823 27.555 15.715 27.215C16.2477 26.875 16.5593 26.416 16.65 25.838C16.7633 25.1127 16.395 24.5687 15.545 24.206C15.2843 24.104 14.695 23.9227 13.777 23.662C13.3917 23.5487 13.0517 23.441 12.757 23.339C12.4737 23.237 12.162 23.0897 11.822 22.897C11.4933 22.693 11.2327 22.4777 11.04 22.251C10.8473 22.013 10.7 21.7183 10.598 21.367C10.496 21.0043 10.479 20.6077 10.547 20.177C10.6943 19.2363 11.1987 18.4543 12.06 17.831C12.9327 17.2077 13.9583 16.896 15.137 16.896C16.191 16.896 17.0353 17.1567 17.67 17.678C18.316 18.1993 18.707 18.936 18.843 19.888L17.313 20.296C17.0863 18.9813 16.293 18.324 14.933 18.324C14.2077 18.324 13.59 18.511 13.08 18.885C12.57 19.2477 12.2697 19.6953 12.179 20.228C12.1337 20.4887 12.1507 20.7267 12.23 20.942C12.3207 21.1573 12.434 21.333 12.57 21.469C12.7173 21.605 12.9327 21.741 13.216 21.877C13.5107 22.0017 13.7543 22.098 13.947 22.166C14.151 22.2227 14.4343 22.302 14.797 22.404C16.0777 22.7667 16.9503 23.118 17.415 23.458C18.1743 24.0247 18.469 24.818 18.299 25.838C18.1403 26.8693 17.6247 27.6853 16.752 28.286C15.8793 28.8867 14.8083 29.187 13.539 29.187ZM23.4299 29.204C22.2399 29.204 21.2709 28.779 20.5229 27.929C19.7749 27.079 19.5029 26.0307 19.7069 24.784C19.9109 23.5033 20.4946 22.4437 21.4579 21.605C22.4326 20.7663 23.5603 20.347 24.8409 20.347C26.0989 20.347 27.0849 20.7833 27.7989 21.656C28.5243 22.5287 28.7906 23.5713 28.5979 24.784C28.3939 26.076 27.8103 27.1357 26.8469 27.963C25.8836 28.7903 24.7446 29.204 23.4299 29.204ZM23.6679 27.776C24.4726 27.776 25.1979 27.4927 25.8439 26.926C26.4899 26.348 26.8809 25.6397 27.0169 24.801C27.1416 23.9623 26.9716 23.2597 26.5069 22.693C26.0423 22.115 25.4076 21.8203 24.6029 21.809C23.7983 21.809 23.0729 22.098 22.4269 22.676C21.7923 23.254 21.4069 23.9623 21.2709 24.801C21.1463 25.6397 21.3106 26.3423 21.7639 26.909C22.2286 27.4757 22.8633 27.7647 23.6679 27.776ZM32.0257 29.051C31.2664 29.051 30.7167 28.8357 30.3767 28.405C30.048 27.9743 29.946 27.368 30.0707 26.586L31.7027 16.25H33.2497L31.6517 26.331C31.5384 27.2037 31.8727 27.64 32.6547 27.64C32.8927 27.64 33.1307 27.6003 33.3687 27.521L33.1307 28.881C32.7567 28.9943 32.3884 29.051 32.0257 29.051ZM36.8951 29L34.6511 20.585H36.1981L37.9491 27.436L41.7741 20.585H43.4911L38.5951 29H36.8951ZM46.3668 18.698C46.1628 18.868 45.9361 18.953 45.6868 18.953C45.4375 18.953 45.2391 18.868 45.0918 18.698C44.9445 18.5167 44.8878 18.2957 44.9218 18.035C44.9671 17.8083 45.0918 17.61 45.2958 17.44C45.4998 17.2587 45.7265 17.168 45.9758 17.168C46.2251 17.168 46.4235 17.2587 46.5708 17.44C46.7181 17.61 46.7748 17.8083 46.7408 18.035C46.6955 18.2957 46.5708 18.5167 46.3668 18.698ZM43.3238 29L44.6668 20.585H46.1968L44.8538 29H43.3238ZM47.0117 29L48.3547 20.585H49.9017L49.7147 21.707C50.5421 20.8797 51.5054 20.466 52.6047 20.466C53.7267 20.466 54.5711 20.8287 55.1377 21.554C55.7157 22.268 55.8914 23.305 55.6647 24.665L54.9677 29H53.4207L54.1007 24.784C54.2481 23.7867 54.1404 23.0443 53.7777 22.557C53.4151 22.0583 52.8881 21.809 52.1967 21.809C51.4827 21.809 50.8424 22.0867 50.2757 22.642C49.7204 23.1973 49.3691 23.9397 49.2217 24.869L48.5587 29H47.0117ZM60.1335 33.25C59.2721 33.2613 58.4958 33.0687 57.8045 32.672C57.1245 32.2867 56.6201 31.7937 56.2915 31.193L57.5835 30.207C58.1728 31.2497 59.1078 31.771 60.3885 31.771C61.1478 31.771 61.8788 31.4933 62.5815 30.938C63.2955 30.394 63.7261 29.6403 63.8735 28.677L64.0265 27.759C63.6525 28.1557 63.1821 28.4843 62.6155 28.745C62.0488 28.9943 61.4481 29.119 60.8135 29.119C59.5895 29.119 58.6318 28.7053 57.9405 27.878C57.2491 27.0507 56.9998 26.025 57.1925 24.801C57.3965 23.509 57.9575 22.4663 58.8755 21.673C59.8048 20.8683 60.8985 20.466 62.1565 20.466C63.3125 20.466 64.2418 20.925 64.9445 21.843L65.1485 20.585H66.6955L65.4375 28.592C65.1995 30.0993 64.5875 31.2497 63.6015 32.043C62.6268 32.8363 61.4708 33.2387 60.1335 33.25ZM60.9665 27.776C61.8505 27.776 62.6268 27.4927 63.2955 26.926C63.9641 26.348 64.3608 25.6397 64.4855 24.801C64.6215 23.9623 64.4571 23.254 63.9925 22.676C63.5278 22.098 62.8875 21.809 62.0715 21.809C61.2555 21.809 60.5301 22.098 59.8955 22.676C59.2721 23.2427 58.8925 23.951 58.7565 24.801C58.6318 25.6283 58.7848 26.331 59.2155 26.909C59.6461 27.487 60.2298 27.776 60.9665 27.776ZM71.4337 33.25L73.4567 20.585H75.0037L74.7997 21.843C75.8424 20.925 76.9417 20.466 78.0977 20.466C79.2877 20.466 80.217 20.8853 80.8857 21.724C81.5657 22.5513 81.8094 23.577 81.6167 24.801C81.424 26.025 80.8914 27.0507 80.0187 27.878C79.146 28.7053 78.1204 29.119 76.9417 29.119C75.559 29.119 74.5334 28.6657 73.8647 27.759L72.9807 33.25H71.4337ZM76.7547 27.776C77.5594 27.776 78.2734 27.487 78.8967 26.909C79.5314 26.331 79.911 25.617 80.0357 24.767C80.1604 23.9283 80.0017 23.2257 79.5597 22.659C79.1177 22.0923 78.4944 21.809 77.6897 21.809C76.8737 21.809 76.137 22.098 75.4797 22.676C74.8337 23.254 74.4484 23.9623 74.3237 24.801C74.199 25.6397 74.369 26.348 74.8337 26.926C75.2984 27.4927 75.9387 27.776 76.7547 27.776ZM82.7221 29L84.0651 20.585H85.6121L85.4251 21.741C86.1504 20.857 87.3008 20.432 88.8761 20.466L88.6211 22.081C88.3491 21.979 88.0091 21.928 87.6011 21.928C86.9664 21.928 86.4054 22.1603 85.9181 22.625C85.4308 23.0783 85.1304 23.6507 85.0171 24.342L84.2691 29H82.7221ZM92.7913 29.204C91.6013 29.204 90.6323 28.779 89.8843 27.929C89.1363 27.079 88.8643 26.0307 89.0683 24.784C89.2723 23.5033 89.8559 22.4437 90.8193 21.605C91.7939 20.7663 92.9216 20.347 94.2023 20.347C95.4603 20.347 96.4463 20.7833 97.1603 21.656C97.8856 22.5287 98.1519 23.5713 97.9593 24.784C97.7553 26.076 97.1716 27.1357 96.2083 27.963C95.2449 28.7903 94.1059 29.204 92.7913 29.204ZM93.0293 27.776C93.8339 27.776 94.5593 27.4927 95.2053 26.926C95.8513 26.348 96.2423 25.6397 96.3783 24.801C96.5029 23.9623 96.3329 23.2597 95.8683 22.693C95.4036 22.115 94.7689 21.8203 93.9643 21.809C93.1596 21.809 92.4343 22.098 91.7883 22.676C91.1536 23.254 90.7683 23.9623 90.6323 24.801C90.5076 25.6397 90.6719 26.3423 91.1253 26.909C91.5899 27.4757 92.2246 27.7647 93.0293 27.776ZM103.886 29.119C102.503 29.119 101.478 28.6657 100.809 27.759L100.605 29H99.058L101.081 16.25H102.628L101.744 21.843C102.787 20.925 103.886 20.466 105.042 20.466C106.232 20.466 107.161 20.8853 107.83 21.724C108.51 22.5513 108.754 23.577 108.561 24.801C108.368 26.025 107.836 27.0507 106.963 27.878C106.09 28.7053 105.065 29.119 103.886 29.119ZM103.699 27.776C104.504 27.776 105.218 27.487 105.841 26.909C106.476 26.331 106.855 25.617 106.98 24.767C107.105 23.9283 106.946 23.2257 106.504 22.659C106.062 22.0923 105.439 21.809 104.634 21.809C103.818 21.809 103.081 22.098 102.424 22.676C101.778 23.254 101.393 23.9623 101.268 24.801C101.143 25.6397 101.313 26.348 101.778 26.926C102.243 27.4927 102.883 27.776 103.699 27.776ZM111.995 29.051C111.236 29.051 110.686 28.8357 110.346 28.405C110.018 27.9743 109.916 27.368 110.04 26.586L111.672 16.25H113.219L111.621 26.331C111.508 27.2037 111.842 27.64 112.624 27.64C112.862 27.64 113.1 27.6003 113.338 27.521L113.1 28.881C112.726 28.9943 112.358 29.051 111.995 29.051ZM119.584 20.364C120.774 20.364 121.721 20.7663 122.423 21.571C123.126 22.3643 123.404 23.3843 123.256 24.631L123.154 25.175H115.929C115.884 25.9797 116.105 26.637 116.592 27.147C117.08 27.6457 117.709 27.895 118.479 27.895C119.59 27.895 120.497 27.5153 121.199 26.756L122.134 27.555C121.148 28.6657 119.834 29.2097 118.19 29.187C116.989 29.1757 116.026 28.745 115.3 27.895C114.575 27.0337 114.309 26.0023 114.501 24.801C114.705 23.543 115.272 22.489 116.201 21.639C117.131 20.789 118.258 20.364 119.584 20.364ZM116.201 23.934H121.862C121.806 23.2313 121.551 22.676 121.097 22.268C120.655 21.8487 120.089 21.639 119.397 21.639C118.683 21.639 118.037 21.8543 117.459 22.285C116.893 22.7043 116.473 23.254 116.201 23.934ZM124.275 29L125.618 20.585H127.165L126.978 21.707C127.862 20.8797 128.877 20.466 130.021 20.466C131.223 20.466 132.084 21.0043 132.605 22.081C133.523 21.0043 134.702 20.466 136.141 20.466C137.252 20.466 138.068 20.8173 138.589 21.52C139.122 22.2113 139.275 23.2597 139.048 24.665L138.351 29H136.804L137.484 24.784C137.654 23.7527 137.558 22.9933 137.195 22.506C136.844 22.0187 136.334 21.775 135.665 21.775C134.963 21.775 134.345 22.0357 133.812 22.557C133.28 23.0783 132.934 23.8207 132.775 24.784L132.095 29H130.548L131.228 24.784C131.387 23.764 131.285 23.0103 130.922 22.523C130.56 22.0243 130.055 21.775 129.409 21.775C128.718 21.775 128.095 22.064 127.539 22.642C126.984 23.2087 126.633 23.9623 126.485 24.903L125.822 29H124.275ZM143.542 29.306C142.714 29.306 141.978 29.085 141.332 28.643C140.697 28.201 140.323 27.6173 140.21 26.892L141.604 26.467C141.694 26.9657 141.932 27.3567 142.318 27.64C142.714 27.9233 143.202 28.065 143.78 28.065C144.414 28.065 144.936 27.9233 145.344 27.64C145.752 27.3567 146.001 26.977 146.092 26.501C146.16 26.0703 146.001 25.7813 145.616 25.634C145.23 25.4867 144.664 25.379 143.916 25.311C143.179 25.243 142.629 25.1353 142.267 24.988C141.383 24.6253 141.02 23.9567 141.179 22.982C141.303 22.2567 141.711 21.639 142.403 21.129C143.105 20.6077 143.927 20.347 144.868 20.347C145.74 20.347 146.432 20.5623 146.942 20.993C147.463 21.4123 147.763 21.9563 147.843 22.625L146.483 22.982C146.426 22.54 146.25 22.183 145.956 21.911C145.672 21.639 145.253 21.503 144.698 21.503C144.154 21.503 143.683 21.6503 143.287 21.945C142.89 22.2397 142.663 22.574 142.607 22.948C142.55 23.3333 142.663 23.628 142.947 23.832C143.23 24.0247 143.564 24.138 143.95 24.172C144.346 24.206 144.811 24.2627 145.344 24.342C145.876 24.41 146.29 24.512 146.585 24.648C147.378 25.022 147.707 25.6453 147.571 26.518C147.435 27.3793 147.01 28.0593 146.296 28.558C145.593 29.0567 144.675 29.306 143.542 29.306Z" fill="white"/>
<rect width="3" height="114" transform="matrix(-1 0 0 1 8 0)" fill="#FE635C"/>
</svg>
