<svg width="36" height="36" viewBox="0 0 36 36" fill="none" xmlns="http://www.w3.org/2000/svg">
<circle cx="18" cy="18" r="18" fill="#EAE3FC"/>
<path d="M27.1693 10.5006C26.3713 11.0635 25.4877 11.494 24.5526 11.7756C24.0507 11.1985 23.3837 10.7895 22.6418 10.6038C21.8999 10.4182 21.1188 10.4649 20.4043 10.7376C19.6898 11.0103 19.0763 11.4959 18.6468 12.1287C18.2172 12.7614 17.9924 13.5108 18.0026 14.2756V15.1089C16.5381 15.1469 15.087 14.8221 13.7784 14.1634C12.4699 13.5048 11.3445 12.5328 10.5026 11.3339C10.5026 11.3339 7.16927 18.8339 14.6693 22.1672C12.953 23.3322 10.9086 23.9163 8.83594 23.8339C16.3359 28.0006 25.5026 23.8339 25.5026 14.2506C25.5018 14.0184 25.4795 13.7869 25.4359 13.5589C26.2864 12.7201 26.8866 11.6612 27.1693 10.5006V10.5006Z" fill="#7444EE"/>
</svg>
